<svg width="1569" height="1238" viewBox="0 0 1569 1238" fill="none" xmlns="http://www.w3.org/2000/svg">
<path d="M1537.07 555.77L1549.37 475.52L1480.68 488.58C1443.12 495.72 1405.87 500.95 1368.11 503.18C1449.05 452.75 1509.16 380.39 1541.25 292.32C1557.23 248.47 1567.06 203.43 1567.98 157.12C1568.77 116.93 1554.41 82.75 1531.87 51.26C1514.98 27.67 1493.36 8.20999 1463.77 2.98999C1415.77 -5.47001 1370.36 16.23 1332.08 45.53C1331.1 38.09 1326.2 31.01 1318.54 28.38C1318.16 26.29 1317.79 24.2101 1317.36 22.2101C1315.16 12.0901 1302.84 5.23008 1293.05 8.33008L1295.34 0L1053.45 32.91L1037.65 95.04L1012.17 64.86C976.72 22.88 926.68 23.6501 874.17 33.2201C842.44 39.0001 812.56 47.63 781.48 56.92L773.87 90.0701C759.2 66.2901 733.88 53.0701 706.37 50.9401C661.01 47.4301 597.67 65.43 552.07 80.3C535.9 85.57 521.3 92.9 506.79 101.61C503.62 111.96 495.51 117.71 486.18 119.26L486.89 62.13C438.45 79.86 392.14 95.35 343.52 108C322.85 113.38 293.06 120.63 272.37 127.65L273.82 119.75L273.87 105.28C262.71 106.71 253.05 108.87 242.7 112.9C189.24 133.73 135.32 149.56 78.52 158.81L0 171.6L9.97003 297.46L62.4301 293.7C61.2701 339.65 58.0101 383.74 54.2401 430.16L36.87 643.97L83.69 630.94L81.37 647.69L17.07 659.2L28.98 802.5L91.23 800.78L84.4901 883.07L58.44 1139.14L47.54 1232.81L131.86 1201.41L128.15 1237.05L194.24 1214.41L227.04 1200.92L322.48 1160.43L318.25 1197.91L436.41 1147.16L447.11 1078.41L471.8 1144.04L524.86 1120.19C530.56 1133.08 534.48 1145.4 544.67 1156.32L589.45 1133.38C604.07 1125.89 619.76 1123.32 636.2 1119.03L632.16 1149.18L816.1 1106.84L812.11 1136.59L903.38 1114.95L956.86 1103.69C955.7 1107.57 953.79 1109.37 953.73 1114.07C972.65 1111.02 991.62 1095.12 1009.18 1091.54L1048.35 1083.55L1042.56 1111.67L1161.91 1090.81L1169.43 1097.08L1213.49 1090.74L1270.88 1084.69L1375.54 1070.37L1369.05 1098.72L1497.02 1076.2L1543.72 708.69L1557.89 611.82L1568.25 552.78C1556.9 551.92 1547.63 554.22 1537.03 555.78L1537.07 555.77Z" fill="black"/>
<path d="M273.92 138.38C273.19 135.25 274.45 133.1 275.49 130.58C276.22 133.31 276.34 136.76 273.92 138.38Z" fill="black"/>
<path d="M79.6304 603.07L67.0004 607.6L67.9504 580.23L81.2704 422.57L87.6904 321.13C88.9204 301.77 90.3205 283.56 88.9705 263.41L35.8904 269.73C32.9304 264.95 34.3905 259.81 33.9305 254.64L28.4404 192.71L107.84 178.84C155.02 170.6 198.96 155.91 244.41 139.02L240.76 212.23C240.48 217.75 240.61 222.81 237.35 227.4L185.8 246.65L182.66 302.02L176.75 413.57L175.24 453.359L173.25 517.3L171.82 569.85L79.6204 603.07H79.6304Z" fill="#FF3B3B"/>
<path d="M320.57 463.211L312.15 505.311L302.14 550.341C269.09 561.251 237.45 569.871 203.43 579.071L210.62 543.421L299.36 144.981C354.32 132.761 407.18 117.541 460.35 98.3909L461.07 292.781L463.21 370.251L465.2 449.561L467.48 518.081L517.02 206.461L527.58 119.261C563 102.451 598.84 91.6609 636.57 83.6509C674.46 75.6109 728.06 68.6908 746 101.871C750.44 110.081 755.61 118.021 755.58 127.431L755.48 160.311C751.33 191.711 737.46 218.801 720.24 244.801C703.66 269.841 684.62 291.121 659.59 307.561L694.35 380.861C705.68 404.761 714.97 428.451 727.87 451.041L763.78 275.731L787.16 156.831L803.57 78.2109C835.36 67.3409 867.92 59.541 901.88 55.731L937.02 55.2109C968.2 56.9809 994.81 76.7508 1006.81 105.241C1018.06 131.951 1021.48 159.201 1018.25 188.371C1010.99 253.911 980.93 328.561 941.83 381.481C932.01 394.781 924.08 408.701 911.22 419.541L911.87 405.091L856.29 419.781L769.95 444.931L765.02 488.641C745.34 459.111 712 446.491 678.72 454.611C662.2 458.641 647.36 465.021 630.39 472.381L585.82 344.431L558.48 503.401L511.88 522.021L465.08 538.991L465.02 522.571C431.74 531.591 400.45 543.251 368.18 555.651C364.55 551.101 367.69 545.751 367.75 540.821C367.94 525.021 368.45 510.371 369.58 494.761C370.58 480.991 369.23 467.961 372.12 453.921L320.57 463.191V463.211Z" fill="#FF3B3B"/>
<path d="M929.92 199.091C917.51 269.451 891.4 335.871 850.7 393.241C842.34 405.021 832.69 414.411 820.12 421.531L881.29 138.741C893.57 137.011 906.16 137.541 915.68 144.861C928.86 154.991 933.25 180.241 929.93 199.091H929.92Z" fill="#010100"/>
<path d="M687.79 179.189C683.81 206.279 659.92 224.249 639.18 241.319C626.6 251.679 613.61 260.909 596.26 264.629L612.17 167.469C632.58 163.289 653.13 160.589 674.2 162.729C682.98 163.619 688.16 170.159 687.79 179.179V179.189Z" fill="#010101"/>
<path d="M373.75 391.11C359.19 394.28 345.63 396.28 330.74 400.7C331.04 383.99 334.45 369.41 337.48 353.15L366.16 199.38C366.96 195.11 368.02 191.84 370.32 188.17C374.68 190.53 377.3 194.37 377.1 199.31L375.96 226.99L374.71 320.57L373.74 391.1L373.75 391.11Z" fill="#010101"/>
<path d="M1191.6 276.541L1112.88 285.001L1085.83 390.601L1169.9 374.221C1169.73 398.561 1165.96 421.021 1161.69 444.961L969.53 484.401L1073.58 56.2906L1259.03 30.7207L1236.93 104.351L1151.97 110.291L1125.25 214.101L1205.12 207.751L1191.6 276.571V276.541Z" fill="#FF3B3B"/>
<path d="M1217.96 458.19C1201.07 445.02 1193.07 424.07 1190.76 403.72C1178.98 299.6 1242.26 174.21 1311.18 97.57C1331.34 75.15 1354.4 58.55 1380.41 44.51C1406.1 30.64 1434.99 22.6401 1463.84 30.8501C1507.96 43.4101 1522.49 97.97 1519.55 141.77C1517.6 170.9 1513.27 198.49 1504.85 226.32C1485.47 290.36 1454.22 348.81 1408.23 397.26C1377.82 429.29 1343.23 455.35 1301.35 469.3C1273.41 478.6 1241.84 476.82 1217.96 458.2V458.19Z" fill="#FF3B3B"/>
<path d="M1345.02 362.611C1330.94 372.021 1314.52 376.341 1299.47 370.111C1286.94 364.921 1280.35 351.291 1280.39 337.761C1280.48 304.341 1298.93 257.941 1315.55 227.131C1330.95 198.571 1351.62 173.661 1379.21 156.181C1388.04 150.581 1397.44 148.891 1407.72 149.221C1420.43 149.631 1429.59 157.651 1431.02 170.531C1435.22 208.161 1424.63 246.991 1409.17 281.871C1394.88 314.131 1375.15 342.461 1345.02 362.601V362.611Z" fill="#000100"/>
<path d="M1401.39 214.791C1395.54 257.741 1369.13 309.931 1335.79 337.771C1340.25 313.931 1348.43 292.411 1359.45 271.151C1371.7 251.371 1383.69 232.611 1401.39 214.791Z" fill="#010101"/>
<path d="M903.82 652.61L878.99 930.18C878.64 933.11 880.02 935.99 881.33 936.96C886.6 940.89 893.65 932.42 896.98 918.31L912.54 852.26L983.12 544.77L1095.29 528.59C1061.67 638.15 1031.58 743.99 1003.25 852.63L952.87 1043.17L766.45 1087.19L779 980.92L799.05 692.72L903.83 652.6L903.82 652.61Z" fill="#FEFEFE"/>
<path d="M80.7204 1187.78L111.77 902.949L123.7 762.859C100.72 767.189 79.1504 771.009 55.1704 772.649L47.4004 682.009C102.67 674.159 155.18 662.629 208.87 649.409C243.8 640.809 276.69 631.929 311.49 619.359C314 626.579 312.15 633.379 311.26 640.829L301.64 721.499L241.43 743.119C235.3 779.579 231.74 814.539 228.65 851.709C219.57 948.439 213.71 1043.87 210.51 1141.93L80.7304 1187.78H80.7204Z" fill="#FEFEFE"/>
<path d="M1116.67 1039.75L1005.37 1060.48C1003.59 1060.81 1001.37 1060.51 1000.59 1059.96C999.21 1058.98 999.27 1056.67 999.88 1054.29L1020.93 972.171L1047.08 863.121C1070.9 760.731 1092.71 659.101 1111.85 555.661C1149.3 546.101 1184.98 537.401 1224.37 530.801L1190.88 686.011L1145.63 897.201L1116.66 1039.74L1116.67 1039.75Z" fill="#FDFEFD"/>
<path d="M888.02 640.64L887.35 614.4L863.27 619.9C861.53 618.56 861.93 614.18 863.4 613.76L908.33 601.1L911.59 544.78C914.4 541.73 921.26 541.37 925.74 542.7L908.25 687.04L907.66 635.609L888.02 640.64Z" fill="#010101"/>
<path d="M587.01 917.49L573.17 888.32L598.5 865.65L592.25 905.37C591.55 909.84 590.43 913.82 587.02 917.48L587.01 917.49Z" fill="#010101"/>
<path d="M282.18 878.629C281.48 872.019 281.54 864.999 285.14 857.449C286.92 864.639 287 870.989 282.18 878.629Z" fill="#373C3C"/>
<path d="M753.44 732.47L742.64 805.03L707.34 1043.83L703.73 1070.84L585.5 1100.05L595.62 1049.69L489.48 1102.97L459.46 1018.3L424.65 916.79C423.45 914.79 422.23 912.65 420.58 912.18C418.98 911.72 415.38 914.02 414.83 916.53L405.27 960.36L386.33 1100.3L294.08 1138.74L271.87 1146.59L280.37 1093.45L327.32 753.43L339.32 639.59C382.98 617.58 428.43 603.58 475.88 593.2C518.2 583.94 567.27 573.87 600.46 601.83L594.65 673.64L593.33 712.47C596.44 713.51 617.36 723.63 619.71 725.66C598.17 766.14 543.22 833 505.78 861.59L568.6 988.45L597.5 1041.45L648.56 734.27C689.4 726.02 739 693.12 763.45 659.03" fill="#FDFEFD"/>
<path d="M539.3 702.011C541.29 731.821 507.72 761.941 484.02 782.301C466.58 797.281 447.85 809.771 424.99 816.861L443.83 695.591C469.37 687.381 496 682.541 522.7 685.101C532.35 686.031 538.33 692.721 539.3 702.011Z" fill="black"/>
<path d="M1347.36 925.339L1282.94 926.319L1243.48 1030.17L1119.35 1048.68L1171.09 917.259L1245.33 721.989L1313.48 538.309C1380.5 531.639 1446.07 523.819 1513.2 511.119L1509.11 549.989L1488.27 693.599L1468.87 842.119L1447.17 1026.86L1324.29 1048.51L1347.36 925.329V925.339Z" fill="#FDFDFD"/>
<path d="M1362.49 851.04L1304.28 854.52L1330.75 772.22L1384.39 613.68C1386.37 607.84 1394.22 606.34 1399.01 608.5C1400.12 612.69 1399.92 616.79 1399.23 621.08L1388.16 689.4L1372.53 784.49L1362.48 851.03L1362.49 851.04Z" fill="black"/>
<path d="M770.061 719.31L797.35 386.24L970.85 337.77L956.211 436.77L898.401 448.47L896.321 468.18L949.151 456.71L942.691 547.84L888.26 560.06L886.34 578.7L941.47 560.69L946.281 660.06L770.071 719.32L770.061 719.31ZM839.791 421.9L817.5 645.66L833.98 640.12L845.75 525.99L844.13 526.34L855.641 417.46L839.781 421.89L839.791 421.9Z" fill="black"/>
<path d="M591.28 733.361L605.07 582.341L615.94 429.601L627.44 423.721C657.14 408.551 682.71 399.541 707.89 395.361C733.61 391.091 758.4 396.451 777.68 410.441C796.46 424.061 808.85 444.991 812.57 469.361C819.71 516.181 813.17 561.361 793.14 603.661C753.62 687.091 694.37 730.481 617.04 732.631L591.27 733.351L591.28 733.361ZM659.74 458.861L650.66 586.271L641.74 683.941C645.39 683.181 648.99 682.291 652.52 681.251L673.5 453.851L689.76 450.211C711.68 445.301 731.92 450.141 743.89 463.151C772.5 494.241 752.36 572.581 734.08 616.021C740.36 606.371 746.26 595.721 751.78 584.061C767.84 550.161 773.07 513.891 767.33 476.261C765.45 463.911 759.73 453.961 750.81 447.491C741.37 440.641 729.12 438.221 715.38 440.511C698.13 443.371 680.21 449.261 659.74 458.851V458.861Z" fill="black"/>
<path d="M921.071 529.231L867.191 541.331L859.961 611.391L918.47 592.271L918.321 635.901L791.23 678.651L818.571 404.071L943.061 369.291L935.931 417.521L877.411 429.361L870.23 497.261L924.161 485.551L921.071 529.231Z" fill="#89AF96"/>
<path d="M789.96 472.82C784.17 434.86 752.05 411.24 711.64 417.95C685.77 422.24 661.6 431.98 637.85 444.11L627.88 584.19L616.41 709.77C694.06 707.61 742.12 657.93 772.47 593.87C790.72 555.33 796.26 514.14 789.96 472.82ZM704.62 624.61C697.26 636.94 690.72 647.21 677.91 655.22L694.76 472.55C705.26 470.2 719.39 470.32 727.05 478.65C748.51 501.97 725.14 588.66 704.62 624.61Z" fill="#87AE94"/>
</svg>
